# xmcd
#
# Track frame offsets:
#	150
#	15405
#	35805
#	56846
#	74515
#	98258
#	111533
#	125873
#	149767
#	161321
#	177413
#	203873
#	220779
#	245082
#
# Disc length: 3515
#
# Revision: 2
# Processed by: cddbd v1.5.1PL0 Copyright (c) Steve Scherf et al.
# Submitted via: audiograbber 1.81.02
# Normalized: r1:DSETVAR1
#
DISCID=d90db90e
DTITLE=Various Artist - The Blues Foundation Presents Blues Greats
DYEAR=2002
DGENRE=Blues
TTITLE0=Ike Turner - Baby's Got It
TTITLE1=Rod Piazza - Who Knows What's Going On?
TTITLE2=Boozoo Chavez - Keep Your Dress Tail Down
TTITLE3=Paul Reddick and The Sidemen - One Way Trip
TTITLE4=R L Burnside - Jumper On The Line
TTITLE5=Maria Mudaur with Alvin 'Youngblood' Hart - I'm Goin' Back Home
TTITLE6=Charley Patton - A Spoonful Blues
TTITLE7=Kim Wilson - Smokin' Joint
TTITLE8=Henry Gray - How Could You Do IT
TTITLE9=Otis Taylor - My Soul's In Louisiana
TTITLE10=Irma Thomas - If You Want It, Come And Get It
TTITLE11=Duke Robillard - If Walls Could Talk
TTITLE12=Rufus Thomas - Just Because I Leave, That Don't Mean I'm Gone
TTITLE13=Street Band - When I Lay My Burden Down
EXTD=BRG Records 0100\n© 2002\n\nIn celebration of the 2002 W C Handy Awards
EXTT0=
EXTT1=
EXTT2=
EXTT3=
EXTT4=
EXTT5=
EXTT6=
EXTT7=
EXTT8=
EXTT9=
EXTT10=
EXTT11=
EXTT12=
EXTT13=
PLAYORDER=
